<svg fill="none" version="1.1" viewBox="0 0 14 14" xmlns="http://www.w3.org/2000/svg">
	<path d="m9.2586 7.0109 4.4583-4.4605c0.1807-0.18715 0.2805-0.42967 0.2805-0.68102s-0.0998-0.49387-0.2805-0.68102l-0.9083-0.908c-0.0863-0.088826-0.1915-0.15987-0.3092-0.20848s-0.2451-0.073676-0.3739-0.073676-0.2561 0.025067-0.3738 0.073676c-0.1176 0.04861-0.223 0.11965-0.3093 0.20848l-4.4581 4.4606-4.4351-4.4332c-0.08623-0.088826-0.19165-0.15987-0.30932-0.20848s-0.24495-0.073758-0.37375-0.073758c-0.12879 0-0.25625 0.025148-0.37392 0.073758-0.11767 0.048609-0.22309 0.11965-0.30932 0.20848l-0.90812 0.908c-0.18085 0.18708-0.28088 0.42962-0.28088 0.68101 0 0.2514 0.10003 0.49394 0.28088 0.68102l4.4351 4.4331-4.4307 4.4259c-0.18056 0.1872-0.28053 0.4297-0.28053 0.681s0.099973 0.4938 0.28053 0.681l0.90882 0.908c0.08615 0.0884 0.19127 0.159 0.30862 0.2073 0.11734 0.0484 0.24432 0.0734 0.37269 0.0734 0.12838 0 0.25535-0.025 0.3727-0.0734 0.11734-0.0483 0.22247-0.1189 0.30861-0.2073l4.4307-4.4265 4.4402 4.4372c0.0861 0.0884 0.1913 0.1592 0.3087 0.2076 0.1173 0.0484 0.2442 0.0734 0.3726 0.0734 0.1285 0 0.2556-0.025 0.3729-0.0734 0.1174-0.0484 0.2224-0.1192 0.3085-0.2076l0.909-0.908c0.1808-0.1871 0.2808-0.4296 0.2808-0.681s-0.1-0.494-0.2808-0.6811l-4.4346-4.4365z" fill="#1E2531" fill-opacity=".67"/>
</svg>
