<svg enable-background="new 0 0 256 256" version="1.1" viewBox="0 0 236 194.02" xmlns="http://www.w3.org/2000/svg">
	<path fill="#393939"
		d="m101.64 0.0022376c-3.5875 0.0125-7.1613 0.23867-9.6113 0.63867-16 2.9-30.3 13.499-37.5 27.799l-1.7012 3.3008-3.7988 0.19922c-12.1 1-25.001 7.3004-33.701 16.4-7.3 7.8-12.2 16.999-14.5 27.699-1.1 4.9-1.1 15.701 0 20.701 4.3 19.8 17.802 35.399 36.102 41.699 7.1679 2.4216 6.3717 2.4 82.918 2.3965a50 50 0 0 1-0.87891-7.4863c-45.088 0.0665-67.758-0.0382-70.641-0.41016-10-1.2-18.5-5.4988-26.5-13.299-6.2-6.2-10.498-13.601-12.898-22.301-1.5-5.6-1.5-16.499 0-22.199 2.1-8 6.4984-15.701 12.398-21.801 8.7-9 19.4-13.801 30.9-13.801 2.6 0 4.3996-0.29922 5.0996-0.69922 0.6-0.3 1.9016-2.5996 3.1016-5.0996 2.4-5.2 5.3984-9.4 8.8984-13 6.5-6.5 15.3-11.1 23.9-12.6 1.5-0.3 3.3004-0.60117 3.9004-0.70117 2.3-0.2 10.499 0.3 14.199 1 16.2 3.4 29.2 15.4 34 31.6 0.8 3 1.2004 3.5 2.4004 4 1.7 0.7 1.7996 0.60156 6.0996-1.3984 4.5-2.2 8.0012-3 13.201-3 7.8 0 14.199 2.3996 19.699 7.5996 5.3 4.9 8.2 10.7 9 17.9 0.6 5.5 0.9 5.9 6 6.5 7.7 0.9 14.4 4.5988 19.4 10.799 4.7 5.8 6.9008 11.301 7.3008 18.301 0.54367 9.1743-3.3093 18.155-9.877 24.449a50 50 0 0 1 0.37305 6.0879 50 50 0 0 1-0.12696 3.5371c7.6981-5.2659 13.678-13.524 16.23-22.975 1.3-5.1 1.3-13.7 0-18.9-3.3-12.3-12.3-22.6-23.6-27-1.9-0.7-4.5012-1.4992-5.7012-1.6992-1.7-0.3-2.2004-0.60078-2.4004-1.3008-1.7-8.4-3.6992-12.799-8.1992-18.299-2.9-3.5-7.1-6.8-11.5-9-8.8-4.4-20.6-5.1-29.5-1.5l-2.3008 0.89844-0.5-1.3984c-1-3.1-4.0984-8.7-6.3984-12-7.8-11-19.702-18.4-33.602-21-2.5-0.45-6.1-0.65117-9.6875-0.63867z" />
	<circle cx="170.77" cy="140.02" r="50" fill="none" stroke="#393939" stroke-width="8" />
	<path fill="#393939"
		d="m178.86 140.06 15.939-15.947c0.64603-0.66909 1.0028-1.5361 1.0028-2.4348 0-0.89861-0.35679-1.7657-1.0028-2.4348l-3.2473-3.2462c-0.30854-0.31748-0.68464-0.57157-1.1054-0.74535-0.42079-0.17376-0.87627-0.26349-1.3368-0.26349s-0.9156 0.0897-1.3364 0.26349c-0.42044 0.17375-0.79727 0.42777-1.1058 0.74535l-15.938 15.947-15.856-15.849c-0.30819-0.31747-0.68518-0.57156-1.1059-0.74535-0.42069-0.17375-0.87574-0.26385-1.3362-0.26385-0.46045 0-0.91613 0.0897-1.3368 0.26385-0.42069 0.17375-0.79758 0.42776-1.1059 0.74535l-3.2467 3.2462c-0.64657 0.66884-1.0042 1.536-1.0042 2.4347 0 0.89879 0.35762 1.7659 1.0042 2.4348l15.856 15.849-15.84 15.823c-0.64553 0.66926-1.0029 1.5362-1.0029 2.4347 0 0.89843 0.35752 1.7654 1.0029 2.4347l3.2492 3.2462c0.30819 0.31605 0.68383 0.56845 1.1034 0.74113 0.41951 0.17304 0.87348 0.26242 1.3324 0.26242 0.45897 0 0.91291-0.0894 1.3325-0.26242 0.41951-0.17268 0.79536-0.42508 1.1033-0.74113l15.84-15.825 15.874 15.864c0.30783 0.31604 0.68393 0.56916 1.1036 0.7422 0.41938 0.17304 0.87306 0.26241 1.3321 0.26241 0.45941 0 0.91381-0.0894 1.3332-0.26241 0.41972-0.17304 0.79511-0.42616 1.1029-0.7422l3.2498-3.2462c0.64639-0.66891 1.0039-1.5359 1.0039-2.4347 0-0.8988-0.35752-1.7661-1.0039-2.435l-15.854-15.861z"
		stroke-width="3.5752" />
</svg>